<?xml version="1.0" encoding="UTF-8"?>
<svg version="1.1" xmlns="http://www.w3.org/2000/svg" width="170" height="170">
<path d="M0 0 C2.49619392 -0.0809139 4.91821094 0.00649703 7.41015625 0.171875 C8.41949219 0.22859375 9.42882812 0.2853125 10.46875 0.34375 C25.1484996 1.76929794 39.76644773 7.88518815 50.41015625 18.171875 C51.29703125 18.996875 52.18390625 19.821875 53.09765625 20.671875 C53.86078125 21.496875 54.62390625 22.321875 55.41015625 23.171875 C56.23966797 24.06326172 56.23966797 24.06326172 57.0859375 24.97265625 C71.0928672 40.41927038 75.52020024 59.29719378 74.59667969 79.71386719 C73.53802865 93.66478165 66.69483252 107.97030229 58.41015625 119.171875 C57.75015625 119.171875 57.09015625 119.171875 56.41015625 119.171875 C56.03117187 120.04585937 56.03117187 120.04585937 55.64453125 120.9375 C49.51635 132.03028378 33.72209416 138.83394875 22.2265625 142.48046875 C2.5959325 147.29963867 -17.38299148 144.43154207 -35.11328125 135.1484375 C-38.12011691 132.74866014 -38.72675581 130.8633957 -39.58984375 127.171875 C-40.51796875 128.3784375 -40.51796875 128.3784375 -41.46484375 129.609375 C-43.59811247 132.18184611 -44.33520226 133.02151521 -47.578125 133.41015625 C-51.74394707 133.5431825 -53.96853706 133.56019168 -57.58984375 131.296875 C-60.13178329 128.59606424 -60.53499571 127.64722472 -60.96484375 123.921875 C-60.47500597 119.02349717 -58.96470165 117.63110435 -55.58984375 114.171875 C-56.33234375 113.511875 -57.07484375 112.851875 -57.83984375 112.171875 C-66.36791381 103.47611817 -70.18213553 87.47245799 -70.65234375 75.5703125 C-70.32961927 58.02216865 -66.15817473 42.4426368 -55.58984375 28.171875 C-55.08066406 27.47964844 -54.57148437 26.78742187 -54.046875 26.07421875 C-43.01985786 12.37893573 -26.30184582 3.38160081 -9.02734375 0.671875 C-6.01815445 0.37965315 -3.01587681 0.20014869 0 0 Z M-31.02734375 45.1015625 C-38.52563233 55.03679487 -41.50277634 65.89772326 -40.12109375 78.16015625 C-37.85872736 90.98577747 -31.3564941 100.77852119 -21.00390625 108.55078125 C-12.10956764 114.52351673 -2.11723803 116.0559585 8.41015625 115.171875 C17.49625382 113.37822173 25.68908369 109.55689393 32.41015625 103.171875 C32.41015625 102.511875 32.41015625 101.851875 32.41015625 101.171875 C33.07015625 101.171875 33.73015625 101.171875 34.41015625 101.171875 C35.86811258 99.12567293 35.86811258 99.12567293 37.28515625 96.546875 C37.81882812 95.63550781 38.3525 94.72414063 38.90234375 93.78515625 C39.39992188 92.92277344 39.8975 92.06039062 40.41015625 91.171875 C43.27349671 86.25050859 45.29807028 84.56476631 50.41015625 82.171875 C53.42977072 79.36050981 54.1186224 76.3466789 54.4609375 72.26171875 C54.37057565 68.54298121 53.39186801 66.29457232 51.41015625 63.171875 C49.62388155 62.18716122 49.62388155 62.18716122 47.59765625 61.421875 C42.58502249 59.29447306 41.29313262 55.75741044 38.94921875 51.05078125 C33.78340936 41.38783323 25.13786212 34.73253493 14.76953125 31.296875 C12.30184406 30.73815337 9.92984488 30.39133175 7.41015625 30.171875 C6.6109375 30.10226563 5.81171875 30.03265625 4.98828125 29.9609375 C-8.9059236 29.38569972 -21.5558324 34.94700946 -31.02734375 45.1015625 Z " fill="#1E4B66" transform="translate(83.58984375,14.828125)"/>
<path d="M0 0 C4.54329149 4.37642603 9.25767137 8.97021602 10.4375 15.375 C10 18 10 18 7.5 20.6875 C4.44966857 24.07869941 4.23756429 27.08353497 4.41796875 31.546875 C5.09793922 34.41279082 6.08151627 35.6017373 8.125 37.6875 C9.765625 39.3671875 9.765625 39.3671875 11 41 C10.73962125 47.90003687 5.68046544 53.24897478 1 58 C-6.47963098 63.90952662 -16.26652611 67.7687614 -25.91796875 67.27734375 C-36.98598981 65.80299198 -46.75478061 61.38516096 -53.9375 52.625 C-60.33509555 43.51187828 -62.77162421 34.74966736 -61.78125 23.51953125 C-59.82711238 12.90330281 -54.30700059 4.59752737 -45.6796875 -1.69140625 C-31.36703139 -11.00136281 -13.56775507 -10.30104036 0 0 Z M-29.71875 18.515625 C-30.35296875 19.25039062 -30.35296875 19.25039062 -31 20 C-30.25234375 19.98839844 -29.5046875 19.97679687 -28.734375 19.96484375 C-27.74953125 19.95582031 -26.7646875 19.94679688 -25.75 19.9375 C-24.28820312 19.92009766 -24.28820312 19.92009766 -22.796875 19.90234375 C-20.34241322 19.98804423 -18.33831086 20.29293934 -16 21 C-17.72226496 17.75150023 -17.72226496 17.75150023 -21 17 C-25.74165138 16.43740881 -25.74165138 16.43740881 -29.71875 18.515625 Z M-33 20 C-32.67 20.66 -32.34 21.32 -32 22 C-31.67 21.34 -31.34 20.68 -31 20 C-31.66 20 -32.32 20 -33 20 Z " fill="#1F4B67" transform="translate(110,58)"/>
<path d="M0 0 C2.49619392 -0.0809139 4.91821094 0.00649703 7.41015625 0.171875 C8.41949219 0.22859375 9.42882812 0.2853125 10.46875 0.34375 C25.1484996 1.76929794 39.76644773 7.88518815 50.41015625 18.171875 C51.29703125 18.996875 52.18390625 19.821875 53.09765625 20.671875 C53.86078125 21.496875 54.62390625 22.321875 55.41015625 23.171875 C56.23966797 24.06326172 56.23966797 24.06326172 57.0859375 24.97265625 C71.0928672 40.41927038 75.52020024 59.29719378 74.59667969 79.71386719 C73.53802865 93.66478165 66.69483252 107.97030229 58.41015625 119.171875 C57.75015625 119.171875 57.09015625 119.171875 56.41015625 119.171875 C56.03117187 120.04585937 56.03117187 120.04585937 55.64453125 120.9375 C49.51635 132.03028378 33.72209416 138.83394875 22.2265625 142.48046875 C2.5959325 147.29963867 -17.38299148 144.43154207 -35.11328125 135.1484375 C-38.12011691 132.74866014 -38.72675581 130.8633957 -39.58984375 127.171875 C-40.51796875 128.3784375 -40.51796875 128.3784375 -41.46484375 129.609375 C-43.59811247 132.18184611 -44.33520226 133.02151521 -47.578125 133.41015625 C-51.74394707 133.5431825 -53.96853706 133.56019168 -57.58984375 131.296875 C-60.13178329 128.59606424 -60.53499571 127.64722472 -60.96484375 123.921875 C-60.47500597 119.02349717 -58.96470165 117.63110435 -55.58984375 114.171875 C-56.33234375 113.511875 -57.07484375 112.851875 -57.83984375 112.171875 C-66.36791381 103.47611817 -70.18213553 87.47245799 -70.65234375 75.5703125 C-70.32961927 58.02216865 -66.15817473 42.4426368 -55.58984375 28.171875 C-55.08066406 27.47964844 -54.57148437 26.78742187 -54.046875 26.07421875 C-43.01985786 12.37893573 -26.30184582 3.38160081 -9.02734375 0.671875 C-6.01815445 0.37965315 -3.01587681 0.20014869 0 0 Z M-21.58984375 6.171875 C-22.46777588 6.4620752 -23.34570801 6.75227539 -24.25024414 7.05126953 C-31.27248795 9.47677584 -36.78796942 13.62048389 -42.58984375 18.171875 C-43.64171875 18.955625 -44.69359375 19.739375 -45.77734375 20.546875 C-54.63732697 28.81619267 -61.24751315 38.54729122 -64.58984375 50.171875 C-64.96109375 51.368125 -65.33234375 52.564375 -65.71484375 53.796875 C-70.72476623 73.12086172 -66.92607126 90.52415103 -58.58984375 108.171875 C-57.92984375 109.161875 -57.26984375 110.151875 -56.58984375 111.171875 C-53.89972703 111.56920133 -53.89972703 111.56920133 -50.83984375 111.546875 C-44.06798171 111.94474219 -44.06798171 111.94474219 -40.96484375 114.484375 C-38.28575409 117.51597645 -36.57903182 119.48521411 -36.60546875 123.609375 C-36.72148438 124.8778125 -36.72148438 124.8778125 -36.83984375 126.171875 C-36.9391921 128.78749102 -36.9391921 128.78749102 -36.58984375 131.171875 C-32.42280554 135.33891321 -26.12444582 137.24647772 -20.58984375 139.171875 C-19.87739502 139.42775391 -19.16494629 139.68363281 -18.4309082 139.94726562 C-11.95562999 142.10975814 -6.07898263 142.6470917 0.72265625 142.546875 C1.73593994 142.53527344 2.74922363 142.52367187 3.79321289 142.51171875 C21.62818865 142.12297659 38.48758981 135.78780427 51.41015625 123.171875 C66.03269859 107.80729319 73.2374024 89.41739206 73.00390625 68.28051758 C72.23217832 48.60662309 62.99219166 32.80418173 48.76708984 19.65283203 C40.64030101 12.39534411 33.01844335 8.0279523 22.41015625 5.171875 C20.60611328 4.62660156 20.60611328 4.62660156 18.765625 4.0703125 C13.26591204 2.72369935 7.72959509 2.8425028 2.09765625 2.859375 C1.03353516 2.84326172 -0.03058594 2.82714844 -1.12695312 2.81054688 C-8.39859425 2.80611024 -14.69509993 3.89081408 -21.58984375 6.171875 Z " fill="#E9EDF0" transform="translate(83.58984375,14.828125)"/>
<path d="M0 0 C4.15239112 1.70569602 7.11733071 3.95183022 10 7.375 C11.35561006 10.9334764 11.51461028 13.20474921 11 17 C8.9087033 21.35085864 5.98485121 26.78394951 1.3125 28.6875 C-7.50526165 29.87908941 -7.50526165 29.87908941 -11.0390625 27.80078125 C-14.33838165 25.1056584 -16.26085395 23.3038884 -17 19 C-17.66 19 -18.32 19 -19 19 C-19.37497746 14.31278181 -19.48459497 10.95124198 -17.3125 6.6875 C-12.00013813 0.51367404 -8.15605978 -1.43784641 0 0 Z M-9.71875 3.515625 C-10.35296875 4.25039062 -10.35296875 4.25039062 -11 5 C-10.25234375 4.98839844 -9.5046875 4.97679688 -8.734375 4.96484375 C-7.74953125 4.95582031 -6.7646875 4.94679688 -5.75 4.9375 C-4.28820312 4.92009766 -4.28820312 4.92009766 -2.796875 4.90234375 C-0.34241322 4.98804423 1.66168914 5.29293934 4 6 C2.27773504 2.75150023 2.27773504 2.75150023 -1 2 C-5.74165138 1.43740881 -5.74165138 1.43740881 -9.71875 3.515625 Z M-13 5 C-12.67 5.66 -12.34 6.32 -12 7 C-11.67 6.34 -11.34 5.68 -11 5 C-11.66 5 -12.32 5 -13 5 Z " fill="#E9EDE5" transform="translate(90,73)"/>
<path d="M0 0 C5.69618917 4.63770191 9.83652612 10.37176901 13 17 C13 17.99 13 18.98 13 20 C13.53625 20.0825 14.0725 20.165 14.625 20.25 C18.45729997 21.46019999 21.97497571 23.37589057 24.15625 26.83203125 C25.70527488 30.81216461 25.53653026 34.80711534 25 39 C22.81510961 43.45070264 20.50908823 45.91888235 16 48 C15.01 48 14.02 48 13 48 C12.79375 48.804375 12.5875 49.60875 12.375 50.4375 C7.78737463 62.32362028 -0.95014655 70.17499738 -12 76 C-12.60070312 76.34289062 -13.20140625 76.68578125 -13.8203125 77.0390625 C-22.32066639 81.11770764 -34.62220084 80.08323015 -43.4375 77.4375 C-57.67508723 71.84764017 -65.70082351 61.73005807 -71.87109375 48.078125 C-75.92931574 37.01279999 -74.51134891 25.68128197 -70 15 C-67.96259469 11.38410988 -65.6483304 8.19041935 -63 5 C-62.48824219 4.36449219 -61.97648437 3.72898437 -61.44921875 3.07421875 C-45.04400259 -15.28496856 -18.38214466 -13.60278705 0 0 Z M-62.4375 6.9296875 C-69.93578858 16.86491987 -72.91293259 27.72584826 -71.53125 39.98828125 C-69.26888361 52.81390247 -62.76665035 62.60664619 -52.4140625 70.37890625 C-43.51972389 76.35164173 -33.52739428 77.8840835 -23 77 C-13.91390243 75.20634673 -5.72107256 71.38501893 1 65 C1 64.34 1 63.68 1 63 C1.66 63 2.32 63 3 63 C4.45795633 60.95379793 4.45795633 60.95379793 5.875 58.375 C6.40867187 57.46363281 6.94234375 56.55226563 7.4921875 55.61328125 C7.98976563 54.75089844 8.48734375 53.88851562 9 53 C11.86334046 48.07863359 13.88791403 46.39289131 19 44 C22.01961447 41.18863481 22.70846615 38.1748039 23.05078125 34.08984375 C22.9604194 30.37110621 21.98171176 28.12269732 20 25 C18.2137253 24.01528622 18.2137253 24.01528622 16.1875 23.25 C11.17486624 21.12259806 9.88297637 17.58553544 7.5390625 12.87890625 C2.37325311 3.21595823 -6.27229413 -3.43934007 -16.640625 -6.875 C-19.10831219 -7.43372163 -21.48031137 -7.78054325 -24 -8 C-24.79921875 -8.06960937 -25.5984375 -8.13921875 -26.421875 -8.2109375 C-40.31607985 -8.78617528 -52.96598865 -3.22486554 -62.4375 6.9296875 Z " fill="#D6DEE2" transform="translate(115,53)"/>
<path d="M0 0 C0.33 0 0.66 0 1 0 C1.20625 1.19625 1.4125 2.3925 1.625 3.625 C2.88172402 9.38574954 5.27254856 14.60195495 7.66015625 19.9609375 C9 23 9 23 10 26 C11.17755859 25.89558594 11.17755859 25.89558594 12.37890625 25.7890625 C22.03225755 25.29158918 22.03225755 25.29158918 26.125 28.75 C29.04243986 31.62389599 30.98643345 34.28247487 31.01953125 38.47265625 C30.95121094 39.32730469 30.88289063 40.18195313 30.8125 41.0625 C30.72891632 43.66793166 30.72891632 43.66793166 31 46 C32.85060538 48.11672853 32.85060538 48.11672853 36 49 C36.72832031 49.31195313 37.45664062 49.62390625 38.20703125 49.9453125 C40.78845875 51.04292734 43.35608597 52.05994168 46 53 C46.71752441 53.256604 47.43504883 53.51320801 48.17431641 53.77758789 C54.53745018 55.89003762 60.31637599 56.50552525 67 56.4375 C68.4864502 56.43375366 68.4864502 56.43375366 70.00292969 56.42993164 C78.18179238 56.28233426 85.70428328 54.89686776 93.578125 52.77734375 C97 52 97 52 100 53 C81.90080356 61.08771034 60.68250488 61.76298743 42 55 C37.40171723 53.12187786 32.89434517 51.10810514 29 48 C27.6484375 44.7734375 27.6484375 44.7734375 27 42 C26.38125 42.804375 25.7625 43.60875 25.125 44.4375 C22.99173128 47.00997111 22.25464149 47.84964021 19.01171875 48.23828125 C14.84589668 48.3713075 12.62130669 48.38831668 9 46.125 C6.45806046 43.42418924 6.05484804 42.47534972 5.625 38.75 C6.11483778 33.85162217 7.6251421 32.45922935 11 29 C10.2575 28.34 9.515 27.68 8.75 27 C5.54278386 23.80186946 3.78601942 20.11798364 2 16 C1.45279297 14.81857422 1.45279297 14.81857422 0.89453125 13.61328125 C-0.12093533 10.64669984 -0.20031101 8.3129068 -0.125 5.1875 C-0.10695313 4.21167969 -0.08890625 3.23585938 -0.0703125 2.23046875 C-0.04710938 1.49441406 -0.02390625 0.75835937 0 0 Z " fill="#D9E0E4" transform="translate(17,100)"/>
<path d="M0 0 C4.54329149 4.37642603 9.25767137 8.97021602 10.4375 15.375 C10 18 10 18 7.5 20.6875 C4.44966857 24.07869941 4.23756429 27.08353497 4.41796875 31.546875 C5.09793922 34.41279082 6.08151627 35.6017373 8.125 37.6875 C9.765625 39.3671875 9.765625 39.3671875 11 41 C10.73962125 47.90003687 5.68046544 53.24897478 1 58 C-6.47963098 63.90952662 -16.26652611 67.7687614 -25.91796875 67.27734375 C-36.98598981 65.80299198 -46.75478061 61.38516096 -53.9375 52.625 C-60.33509555 43.51187828 -62.77162421 34.74966736 -61.78125 23.51953125 C-59.82711238 12.90330281 -54.30700059 4.59752737 -45.6796875 -1.69140625 C-31.36703139 -11.00136281 -13.56775507 -10.30104036 0 0 Z M-53 8 C-59.22804176 16.92781216 -59.72809825 25.34620949 -59 36 C-57.32277154 44.82811464 -52.45494005 51.86580231 -46 58 C-36.23782936 64.37644672 -25.01494131 65.66222959 -13.625 63.375 C-4.10632123 59.76446667 2.4181174 53.3728239 8 45 C7.65237864 41.52378636 5.9685966 38.83477911 4 36 C3.34 36 2.68 36 2 36 C1.67518076 29.91264682 1.52574594 25.27571913 5 20 C5.98311574 18.98339613 6.98020394 17.97980406 8 17 C6.40436999 9.07687169 2.59767227 4.59458392 -4 0 C-4.66 0 -5.32 0 -6 0 C-6 -0.66 -6 -1.32 -6 -2 C-24.61214871 -9.76372684 -39.46795984 -6.80366805 -53 8 Z " fill="#E7EBEE" transform="translate(110,58)"/>
<path d="M0 0 C3.11199254 1.99167522 4.61304528 3.27090501 5.43359375 6.9375 C5.67357753 10.77724044 5.23135114 12.63754988 3.125 15.9375 C-0.15763687 19.12358873 -2.40168772 19.28062738 -6.96484375 19.22265625 C-9.90092462 18.90143435 -11.70920498 17.81916075 -14 16 C-16.4915904 12.2626144 -16.45793285 10.42668417 -16 6 C-11.77912532 -0.47200785 -7.37687911 -0.99593658 0 0 Z " fill="#5FD1EC" transform="translate(131,79)"/>
<path d="M0 0 C5.28880817 0.04808007 5.28880817 0.04808007 8.375 3.0625 C9.77515267 6.66289259 10.41451256 8.64087884 9.6875 12.4375 C7.70299712 15.29022289 6.2286791 17.08017017 2.75 17.88671875 C-0.89295553 18.08680532 -2.99463542 17.60657691 -6.25 15.875 C-8.96611118 12.66505042 -9.3125 10.61705847 -9.3125 6.4375 C-6.81689366 1.21941402 -5.66448059 0.24758657 0 0 Z " fill="#FEF72D" transform="translate(85.3125,78.5625)"/>
<path d="M0 0 C-0.58007812 0.42410156 -1.16015625 0.84820312 -1.7578125 1.28515625 C-12.1979434 9.12386839 -18.49284015 17.22240755 -20.74609375 30.3359375 C-21.92345038 42.68912548 -18.35527214 53.85963715 -10.9609375 63.71875 C-4.15851758 71.63232218 5.93491351 78.17861462 16.48828125 79.25341797 C22.00750652 79.49973895 27.48735679 79.31735899 33 79 C26.85499677 83.09666882 16.64860318 81.69240538 9.5625 80.34765625 C-3.2231647 76.46867204 -12.47921291 68.37182794 -18.79296875 56.6796875 C-24.71740841 44.32420527 -25.73474324 33.22473963 -21.328125 20.14453125 C-18.11204996 12.53000065 -12.62265604 5.04803852 -6 0 C-2.50491803 -1.25245902 -2.50491803 -1.25245902 0 0 Z " fill="#CAD4DB" transform="translate(65,51)"/>
<path d="M0 0 C-0.82242188 0.4846875 -1.64484375 0.969375 -2.4921875 1.46875 C-19.2578459 11.53588899 -33.42109527 23.59663951 -39 43 C-39.37125 44.19625 -39.7425 45.3925 -40.125 46.625 C-41.63153444 52.43591855 -42.12428489 58.03589983 -42.09765625 64.02734375 C-42.09443359 65.31318359 -42.09121094 66.59902344 -42.08789062 67.92382812 C-42.07953802 69.26171945 -42.07107311 70.59961007 -42.0625 71.9375 C-42.05747659 73.30273274 -42.05291517 74.66796726 -42.04882812 76.03320312 C-42.03708851 79.35551457 -42.02066679 82.67773408 -42 86 C-48.4549423 73.87143374 -46.65821795 56.43684676 -42.76953125 43.69140625 C-39.98332729 35.43798877 -36.1982664 28.01938856 -31 21 C-30.49082031 20.30777344 -29.98164063 19.61554687 -29.45703125 18.90234375 C-24.76858779 13.07941274 -8.19922053 -4.09961026 0 0 Z " fill="#E1E6E9" transform="translate(59,22)"/>
<path d="M0 0 C2.9375 1.625 2.9375 1.625 5 4 C5.71295945 7.72323269 5.25353291 9.49293419 3.5625 12.875 C0.30981455 15.57234891 -1.73320049 15.72978547 -5.87109375 15.484375 C-8 15 -8 15 -10.5625 12.875 C-12.20108852 9.59782296 -12.40191848 7.61726636 -12 4 C-9.62775685 -0.74448629 -4.76253704 -0.50131969 0 0 Z " fill="#FDA834" transform="translate(37,131)"/>
<path d="M0 0 C9.94949205 -0.30931063 17.88998487 2.067027 25.88671875 8.1171875 C28.42662299 10.63894957 30.71026729 13.2777111 32.88671875 16.1171875 C29.12839808 16.1171875 28.51690255 15.18111526 25.82421875 12.6796875 C23.06826515 10.09038927 23.06826515 10.09038927 19.88671875 8.1171875 C19.88671875 7.4571875 19.88671875 6.7971875 19.88671875 6.1171875 C19.20609375 5.9934375 18.52546875 5.8696875 17.82421875 5.7421875 C14.88671875 5.1171875 14.88671875 5.1171875 11.66015625 4.10546875 C3.81809789 2.05159632 -5.01065373 1.64167048 -12.48828125 5.1171875 C-21.18792759 10.27038899 -28.66491335 17.00172506 -31.66186523 26.93554688 C-32.16807774 29.38201252 -32.22616815 31.60373628 -32.2109375 34.1015625 C-32.20771484 35.03613281 -32.20449219 35.97070312 -32.20117188 36.93359375 C-32.19279297 37.90167969 -32.18441406 38.86976562 -32.17578125 39.8671875 C-32.17126953 40.85074219 -32.16675781 41.83429688 -32.16210938 42.84765625 C-32.15034608 45.27089541 -32.13390809 47.69401023 -32.11328125 50.1171875 C-32.77328125 50.1171875 -33.43328125 50.1171875 -34.11328125 50.1171875 C-36.95563754 40.25253921 -36.95717705 30.32332201 -32.203125 21.03515625 C-31.84347656 20.40222656 -31.48382813 19.76929687 -31.11328125 19.1171875 C-30.53578125 18.0859375 -29.95828125 17.0546875 -29.36328125 15.9921875 C-23.2445755 8.17384126 -15.3054557 2.52943781 -5.55078125 0.3046875 C-3.70048596 0.2037623 -1.85020323 0.10259907 0 0 Z " fill="#E7EBEE" transform="translate(84.11328125,49.8828125)"/>
<path d="M0 0 C1.9375 0.375 1.9375 0.375 4 1 C5.85618207 4.71236414 5.44809981 8.94843088 5 13 C2.81510961 17.45070264 0.50908823 19.91888235 -4 22 C-4.99 22 -5.98 22 -7 22 C-7.20625 22.804375 -7.4125 23.60875 -7.625 24.4375 C-12.1111395 36.06067961 -20.90407702 44.61546683 -32 50 C-39.70793577 52.97774228 -51.16443843 53.66302382 -58.953125 50.984375 C-59.62859375 50.65953125 -60.3040625 50.3346875 -61 50 C-58 49 -58 49 -55 50 C-44.1489316 50.85883646 -34.28610211 48.78231821 -25 43 C-23.63113049 41.70317626 -22.2830709 40.38176866 -21 39 C-20.34 39 -19.68 39 -19 39 C-19 38.34 -19 37.68 -19 37 C-18.34 37 -17.68 37 -17 37 C-16.72800781 36.45472656 -16.45601562 35.90945312 -16.17578125 35.34765625 C-15.78777344 34.57292969 -15.39976563 33.79820313 -15 33 C-14.56042969 32.11183594 -14.12085938 31.22367188 -13.66796875 30.30859375 C-13.17941406 29.36113281 -12.69085938 28.41367188 -12.1875 27.4375 C-11.46626953 26.01244141 -11.46626953 26.01244141 -10.73046875 24.55859375 C-8.77683342 21.67003587 -7.05680249 20.60325186 -4 19 C-0.6097675 16.30322415 1.24617326 14.32432605 1.9375 10.0625 C2.20527144 6.34893286 1.46344811 3.44340733 0 0 Z " fill="#E8EDEF" transform="translate(135,79)"/>
<path d="M0 0 C0.33 0 0.66 0 1 0 C1.4361762 6.55742861 0.24807367 10.73878562 -2.6875 16.5625 C-3.02716797 17.27857422 -3.36683594 17.99464844 -3.71679688 18.73242188 C-6.05034092 23.52600114 -8.68563306 27.81719198 -12 32 C-12.66 32 -13.32 32 -14 32 C-14.2475 32.58007812 -14.495 33.16015625 -14.75 33.7578125 C-19.08556018 41.53472358 -29.406774 48.40849383 -37.85546875 50.8125 C-40.23501376 51.29579264 -42.59082278 51.70269728 -45 52 C-43.65820781 49.31641561 -42.56137495 49.37613647 -39.75 48.4375 C-23.8760524 42.28322275 -12.47401563 30.33648421 -5.66015625 14.98046875 C-3.5599278 10.04340999 -1.65615638 5.10459157 0 0 Z " fill="#D3DAE0" transform="translate(154,102)"/>
<path d="M0 0 C0.33 0 0.66 0 1 0 C1.20625 1.19625 1.4125 2.3925 1.625 3.625 C2.88172402 9.38574954 5.27254856 14.60195495 7.66015625 19.9609375 C9 23 9 23 10 26 C10.79664063 25.94199219 11.59328125 25.88398437 12.4140625 25.82421875 C22.14625367 25.40983105 22.14625367 25.40983105 25.75 28.5 C26.4925 29.325 27.235 30.15 28 31 C27.01 31.33 26.02 31.66 25 32 C22.8125 30.5625 22.8125 30.5625 21 29 C21.33 29.99 21.66 30.98 22 32 C18 32 14 32 10 32 C10.33 31.01 10.66 30.02 11 29 C10.2575 28.34 9.515 27.68 8.75 27 C5.54278386 23.80186946 3.78601942 20.11798364 2 16 C1.45279297 14.81857422 1.45279297 14.81857422 0.89453125 13.61328125 C-0.12093533 10.64669984 -0.20031101 8.3129068 -0.125 5.1875 C-0.10695313 4.21167969 -0.08890625 3.23585938 -0.0703125 2.23046875 C-0.04710938 1.49441406 -0.02390625 0.75835937 0 0 Z " fill="#E4E8EA" transform="translate(17,100)"/>
<path d="M0 0 C1.64704339 2.47056508 2.61402905 4.41460728 3.6875 7.125 C7.98078826 16.780967 13.2973653 21.95317246 23 26 C23.57878906 26.35964844 24.15757813 26.71929687 24.75390625 27.08984375 C28.31250772 28.53185095 31.94389652 28.47351329 35.75 28.625 C36.54277344 28.66367188 37.33554688 28.70234375 38.15234375 28.7421875 C40.10119416 28.836108 42.05056451 28.91912822 44 29 C44 29.33 44 29.66 44 30 C33.40305795 32.64923551 23.53226462 30.36286839 14.25 24.875 C7.50662424 20.31188593 1.64348726 14.21743631 0 6 C-0.125 2.625 -0.125 2.625 0 0 Z " fill="#DFE5E8" transform="translate(51,94)"/>
<path d="M0 0 C3.11199254 1.99167522 4.61304528 3.27090501 5.43359375 6.9375 C5.67357753 10.77724044 5.23135114 12.63754988 3.125 15.9375 C-0.15763687 19.12358873 -2.40168772 19.28062738 -6.96484375 19.22265625 C-9.90092462 18.90143435 -11.70920498 17.81916075 -14 16 C-16.4915904 12.2626144 -16.45793285 10.42668417 -16 6 C-11.77912532 -0.47200785 -7.37687911 -0.99593658 0 0 Z M-14 5 C-14.79720496 9.38462729 -14.51613309 11.24192952 -12 14.9375 C-7.84919686 17.79117716 -5.9698922 17.7099846 -1 17 C1.66666667 15.66666667 1.66666667 15.66666667 3 13 C3.60460397 10.19003106 3.65502602 7.80397104 3 5 C0.30963932 1.73895675 -1.32419973 1.0965429 -5.5 0.5 C-9.64384566 1.09197795 -11.29494 1.80311091 -14 5 Z " fill="#E8F6FA" transform="translate(131,79)"/>
<path d="M0 0 C8.15023048 7.35424194 11.46945183 20.70848442 12.15234375 31.38085938 C12.25198498 34.00540947 12.29773151 36.62363033 12.3125 39.25 C12.31805908 40.07757813 12.32361816 40.90515625 12.3293457 41.7578125 C12.26356293 47.38926747 11.42790292 52.55647772 10 58 C9.67 58 9.34 58 9 58 C9.02618408 57.14470703 9.05236816 56.28941406 9.0793457 55.40820312 C9.59433206 36.03950122 9.28507971 20.53848389 0 3 C0 2.01 0 1.02 0 0 Z " fill="#E9EDF0" transform="translate(146,48)"/>
<path d="M0 0 C0.66 0.33 1.32 0.66 2 1 C1.505 1.53625 1.01 2.0725 0.5 2.625 C-1.43102443 5.68245535 -1.44522837 7.438173 -1 11 C-0.23608998 13.51869332 -0.23608998 13.51869332 2 15 C5.09794937 15.56536134 7.90205063 15.56536134 11 15 C13.74825705 12.83470656 13.93539968 11.50603588 14.375 8.0625 C13.95913713 4.6662866 12.95657143 2.77180952 11 0 C12.175625 0.495 12.175625 0.495 13.375 1 C15.84332497 2.11866511 15.84332497 2.11866511 18 2 C17.58473282 12.69312977 17.58473282 12.69312977 13 17 C9.54260443 18.72869779 5.78024432 18.48966895 2 18 C-0.87029869 16.20606332 -2.49131638 15.01736724 -4 12 C-4.40423599 7.71509847 -4.45828448 5.67310532 -2 2.0625 C-1.34 1.381875 -0.68 0.70125 0 0 Z " fill="#FBEFDE" transform="translate(27,130)"/>
<path d="M0 0 C4.83747685 0.53749743 7.18714821 4.09496931 10.3828125 7.453125 C18.93664487 15.62010063 28.85799018 18.52364827 40.375 18.375 C43.25630991 18.29808506 46.1217773 18.16569726 49 18 C42.85499677 22.09666882 32.64860318 20.69240538 25.5625 19.34765625 C15.00309037 16.14408536 6.53076932 9.86627623 0 1 C0 0.67 0 0.34 0 0 Z " fill="#C0CCD4" transform="translate(49,112)"/>
<path d="M0 0 C2.9730844 1.29743297 5.60774932 2.79485272 8 5 C8 5.66 8 6.32 8 7 C5.43082078 6.52422607 3.88108877 5.91965457 1.6875 4.4375 C-2.55883235 2.16620595 -6.24370066 2.53165351 -10.8125 3.75 C-13.39941875 5.22823929 -13.92534564 6.27203124 -15 9 C-15.99 10.485 -15.99 10.485 -17 12 C-17.39387788 14.32387947 -17.73486085 16.65793749 -18 19 C-18.33 19 -18.66 19 -19 19 C-19.37497746 14.31278181 -19.48459497 10.95124198 -17.3125 6.6875 C-12.01451976 0.53038783 -8.14300117 -1.46598659 0 0 Z " fill="#D9E0E4" transform="translate(90,73)"/>
<path d="M0 0 C3.375 0.3125 3.375 0.3125 7 1 C9.51475368 4.77213052 9.44796416 6.52035842 9 11 C7.86762288 13.53554006 6.52726865 15.66136988 5 18 C4.01 17.67 3.02 17.34 2 17 C2.350625 16.505 2.70125 16.01 3.0625 15.5 C4.41480735 11.89384706 3.91135755 8.65266321 3 5 C1.5769016 2.09369632 1.5769016 2.09369632 0 0 Z " fill="#E3E8E7" transform="translate(92,79)"/>
<path d="M0 0 C1.99847891 2.2314622 2.97300464 3.43039797 3.1171875 6.47265625 C3.03726563 7.32730469 2.95734375 8.18195313 2.875 9.0625 C2.76698968 11.66663528 2.76698968 11.66663528 3 14 C4.85060538 16.11672853 4.85060538 16.11672853 8 17 C9.77150473 17.727534 11.54229133 18.45681813 13.3125 19.1875 C14.87335914 19.79589327 16.43532997 20.40147573 18 21 C18 21.33 18 21.66 18 22 C13.1409633 22.33833293 10.37861527 21.49919492 6.1875 19.0625 C5.23230469 18.51722656 4.27710938 17.97195312 3.29296875 17.41015625 C1 16 1 16 0 15 C-0.07313567 12.46950598 -0.09247527 9.96695163 -0.0625 7.4375 C-0.05798828 6.72658203 -0.05347656 6.01566406 -0.04882812 5.28320312 C-0.03700864 3.52209987 -0.01907263 1.76103964 0 0 Z " fill="#C0CBD1" transform="translate(45,132)"/>
<path d="M0 0 C0.33 0 0.66 0 1 0 C1.33 12.54 1.66 25.08 2 38 C-3.88722346 26.22555309 -1.88712833 12.54214522 0 0 Z " fill="#EAEEF0" transform="translate(15,70)"/>
<path d="M0 0 C0 3.56700978 -1.07910267 4.90356892 -3.40625 7.51635742 C-8.63845648 12.3870864 -14.1935259 13.44910716 -21.16796875 13.3515625 C-22.10253906 13.31804687 -23.03710938 13.28453125 -24 13.25 C-25.44826172 13.22292969 -25.44826172 13.22292969 -26.92578125 13.1953125 C-29.28492033 13.14859687 -31.64191075 13.08312137 -34 13 C-34 12.67 -34 12.34 -34 12 C-33.16976318 11.95625244 -33.16976318 11.95625244 -32.32275391 11.91162109 C-19.01366941 11.12775618 -9.62229092 9.92298751 0 0 Z " fill="#AEBDC7" transform="translate(112,110)"/>
<path d="M0 0 C4.00846975 3.6744306 6.5603968 7.12079359 9 12 C9 12.99 9 13.98 9 15 C9.53625 15.0825 10.0725 15.165 10.625 15.25 C13.8352431 16.26376098 16.26292392 18.07160549 19 20 C18.67 20.66 18.34 21.32 18 22 C9.45947922 18.75676426 5.65860423 14.88383173 1.93139648 6.85107422 C0 2.42258523 0 2.42258523 0 0 Z " fill="#C8D2D8" transform="translate(119,58)"/>
<path d="M0 0 C0.99 0 1.98 0 3 0 C4.87130475 3.15782677 5.67928969 5.34881792 5 9 C4.05599248 10.07363243 3.07097849 11.11168468 2.0625 12.125 C-2.06005966 16.49976331 -1.97907674 21.21471734 -2 27 C-4 25 -4 25 -4.3125 21.25 C-4.20982414 17.20897155 -3.16983698 14.4556663 -1 11 C-0.401875 10.54625 0.19625 10.0925 0.8125 9.625 C2.23792105 8.06694558 2.23792105 8.06694558 1.7421875 6.04296875 C1.23625984 4.00856948 0.62342448 2.0015207 0 0 Z " fill="#C1CCD4" transform="translate(115,67)"/>
<path d="M0 0 C1.36066226 0.01507524 2.72134069 0.02875862 4.08203125 0.04101562 C7.38843843 0.07619017 10.69400684 0.12541712 14 0.1875 C14 0.5175 14 0.8475 14 1.1875 C13.04130005 1.20937378 13.04130005 1.20937378 12.06323242 1.23168945 C9.1041155 1.30719483 6.1460041 1.40350725 3.1875 1.5 C2.18267578 1.52255859 1.17785156 1.54511719 0.14257812 1.56835938 C-6.96628493 1.81979826 -13.21814952 3.09792665 -20 5.1875 C-21.33099451 5.53005292 -22.66355517 5.8668692 -24 6.1875 C-23 3.1875 -23 3.1875 -19.875 1.51171875 C-13.46024162 -0.68333138 -6.69006298 -0.127773 0 0 Z " fill="#B4C2CB" transform="translate(82,16.8125)"/>
<path d="M0 0 C2.5625 2 2.5625 2 4 4 C3.67 4.66 3.34 5.32 3 6 C2.34 4.68 1.68 3.36 1 2 C-2.72787541 2.06962076 -6.3450815 2.23225085 -10 3 C-12.1386077 5.38987933 -12.1386077 5.38987933 -13 8 C-13.66 8 -14.32 8 -15 8 C-15 8.66 -15 9.32 -15 10 C-15.66 10 -16.32 10 -17 10 C-16.92337598 7.31815946 -16.51430432 5.56803761 -14.69140625 3.5546875 C-10.14573428 -0.11964319 -5.76266202 -1.25710581 0 0 Z " fill="#F7F7D1" transform="translate(90,77)"/>
<path d="M0 0 C0.66 0.33 1.32 0.66 2 1 C-4.65001547 8.27345442 -11.21287586 11.65627599 -21 13 C-19.64251907 10.28503814 -18.39809861 10.29014008 -15.5625 9.3125 C-9.70491733 7.08949244 -4.96943479 3.76408252 0 0 Z " fill="#C6D0D7" transform="translate(130,141)"/>
<path d="M0 0 C7.86478196 0.64202302 12.75057356 3.35339349 17.9375 9.25 C18.96844887 10.49167029 19.99293896 11.73887797 21 13 C17.24167933 13 16.6301838 12.06392776 13.9375 9.5625 C11.1815464 6.97320177 11.1815464 6.97320177 8 5 C8 4.34 8 3.68 8 3 C7.236875 2.87625 6.47375 2.7525 5.6875 2.625 C3 2 3 2 0 0 Z " fill="#CFD8DE" transform="translate(96,53)"/>
<path d="M0 0 C4.47469557 -0.42501589 6.55195436 0.67369106 10.125 3.3125 C10.97320312 3.92738281 11.82140625 4.54226562 12.6953125 5.17578125 C16.6496338 8.30572709 18.30925889 9.88851575 19 15 C18.38125 14.319375 17.7625 13.63875 17.125 12.9375 C13.89689966 9.69090052 10.1753156 7.21801155 6.40234375 4.6484375 C4.22222757 3.15248786 2.10256893 1.60241974 0 0 Z " fill="#DEE5E8" transform="translate(101,47)"/>
<path d="M0 0 C0.33 0 0.66 0 1 0 C1.91144418 7.89918285 -1.19500511 13.20536627 -5 20 C-5.66 20 -6.32 20 -7 20 C-5.52404517 15.51695963 -3.96771452 11.06783525 -2.375 6.625 C-2.03082031 5.66400391 -2.03082031 5.66400391 -1.6796875 4.68359375 C-1.12037724 3.12218595 -0.56027192 1.56106299 0 0 Z " fill="#C7D1D9" transform="translate(154,102)"/>
<path d="M0 0 C7.96475086 -0.76258253 13.16714816 0.92936486 20 5 C20 5.66 20 6.32 20 7 C5.94110787 3.11137026 5.94110787 3.11137026 0 0 Z " fill="#BFCBD3" transform="translate(98,18)"/>
<path d="M0 0 C0.33 0 0.66 0 1 0 C1.17015625 0.85722656 1.3403125 1.71445313 1.515625 2.59765625 C2.90510596 9.15334565 4.37300859 14.37190987 8 20 C8 20.66 8 21.32 8 22 C5 21 5 21 3.61328125 18.84765625 C0.56466372 12.32013583 -0.70231786 7.19485634 0 0 Z " fill="#EEF1F3" transform="translate(43,90)"/>
<path d="M0 0 C0.66 0.33 1.32 0.66 2 1 C2.08121924 2.60332791 2.13929134 4.20784026 2.1875 5.8125 C2.23970703 7.15248047 2.23970703 7.15248047 2.29296875 8.51953125 C2 11 2 11 0.875 12.8125 C-1.84718517 14.53655061 -4.00052205 14.29030574 -7.1875 14.1875 C-8.27417969 14.16042969 -9.36085938 14.13335937 -10.48046875 14.10546875 C-11.72763672 14.05326172 -11.72763672 14.05326172 -13 14 C-13.33 13.34 -13.66 12.68 -14 12 C-12.98679687 12.06960937 -12.98679687 12.06960937 -11.953125 12.140625 C-6.42630004 12.42434663 -6.42630004 12.42434663 -1.375 10.5 C0.63041222 6.85379595 0.27520946 4.12814187 0 0 Z " fill="#FCF9AD" transform="translate(94,83)"/>
<path d="M0 0 C0.99 0.33 1.98 0.66 3 1 C2.71125 1.845625 2.4225 2.69125 2.125 3.5625 C0.22484399 9.36853225 -1.2560599 14.92448919 -2 21 C-2.33 21 -2.66 21 -3 21 C-3.34855655 13.37048445 -3.0017506 7.07555499 0 0 Z " fill="#D4DCE1" transform="translate(19,58)"/>
<path d="M0 0 C0.33 0 0.66 0 1 0 C1.268125 1.27875 1.53625 2.5575 1.8125 3.875 C2.9451896 9.00062417 4.43201301 13.99289488 6 19 C3 18 3 18 1.3125 15.125 C-0.64870143 10.23221102 -0.25291818 5.180139 0 0 Z " fill="#C7D2D8" transform="translate(17,100)"/>
<path d="M0 0 C0.99386719 0.02707031 1.98773438 0.05414063 3.01171875 0.08203125 C4.15060547 0.13423828 4.15060547 0.13423828 5.3125 0.1875 C5.3125 0.5175 5.3125 0.8475 5.3125 1.1875 C3.4871875 1.2803125 3.4871875 1.2803125 1.625 1.375 C-2.88225055 1.93342042 -4.84361434 3.59082108 -7.6875 7.1875 C-8.98269995 9.35370544 -8.98269995 9.35370544 -9.6875 11.1875 C-9.07906035 3.76453631 -9.07906035 3.76453631 -7.5 1.4375 C-4.94465596 -0.32480623 -3.06853091 -0.10830109 0 0 Z " fill="#F1EF5E" transform="translate(85.6875,78.8125)"/>
<path d="M0 0 C3.16115776 1.36983503 3.9927092 1.9890638 6 5 C3.03824877 4.38722388 1.61941217 3.74627478 -1 2 C-0.67 2.99 -0.34 3.98 0 5 C-4 5 -8 5 -12 5 C-9.23949662 2.23949662 -6.79944016 2.53325476 -3 2 C-2.01 1.34 -1.02 0.68 0 0 Z " fill="#E2D6C1" transform="translate(39,127)"/>
<path d="M0 0 C1.64750929 2.47126394 2.93723705 4.7609443 4.1875 7.4375 C4.55230469 8.19933594 4.91710938 8.96117188 5.29296875 9.74609375 C6.09093521 12.28988738 5.8852947 13.52455813 5 16 C0.88757018 10.47759424 -0.61669998 6.90703976 0 0 Z " fill="#CBD4DA" transform="translate(51,94)"/>
<path d="M0 0 C0.66 0.33 1.32 0.66 2 1 C-1 5.5 -1 5.5 -4 10 C-4.39387788 12.32387947 -4.73486085 14.65793749 -5 17 C-5.33 17 -5.66 17 -6 17 C-6.50224661 10.72191742 -6.19082691 7.05364422 -2 2 C-1.34 1.34 -0.68 0.68 0 0 Z " fill="#AEBDC7" transform="translate(77,75)"/>
<path d="M0 0 C0.81210938 0.33837891 0.81210938 0.33837891 1.640625 0.68359375 C0.320625 1.01359375 -0.999375 1.34359375 -2.359375 1.68359375 C-2.359375 2.34359375 -2.359375 3.00359375 -2.359375 3.68359375 C-3.81442858 4.21352067 -5.27355627 4.73227265 -6.734375 5.24609375 C-7.95253906 5.68115234 -7.95253906 5.68115234 -9.1953125 6.125 C-11.359375 6.68359375 -11.359375 6.68359375 -13.359375 5.68359375 C-11.61814951 4.64786479 -9.86600905 3.63046855 -8.109375 2.62109375 C-6.64757812 1.76837891 -6.64757812 1.76837891 -5.15625 0.8984375 C-2.359375 -0.31640625 -2.359375 -0.31640625 0 0 Z " fill="#C0CCD3" transform="translate(74.359375,44.31640625)"/>
<path d="M0 0 C0.66 0.33 1.32 0.66 2 1 C0.49087042 5.98012761 -2.55661849 9.24259942 -6 13 C-6.66 12.67 -7.32 12.34 -8 12 C-7.56042969 11.60167969 -7.12085937 11.20335938 -6.66796875 10.79296875 C-4.78810247 8.77222257 -3.61519799 6.74185572 -2.3125 4.3125 C-1.87550781 3.50425781 -1.43851562 2.69601563 -0.98828125 1.86328125 C-0.66214844 1.24839844 -0.33601563 0.63351563 0 0 Z " fill="#DEE4E8" transform="translate(117,103)"/>
<path d="M0 0 C0.78375 0.33 1.5675 0.66 2.375 1 C4.84332497 2.11866511 4.84332497 2.11866511 7 2 C6.67 5.3 6.34 8.6 6 12 C5.67 12 5.34 12 5 12 C4.731875 10.948125 4.46375 9.89625 4.1875 8.8125 C3.1323171 5.42480754 1.95273622 2.92910433 0 0 Z " fill="#FAF6F0" transform="translate(38,130)"/>
<path d="M0 0 C4.61513112 1.31860889 8.09897612 3.21355437 12 6 C11.67 6.66 11.34 7.32 11 8 C7.37 6.02 3.74 4.04 0 2 C0 1.34 0 0.68 0 0 Z " fill="#D4DBE0" transform="translate(126,72)"/>
<path d="M0 0 C4.99275057 1.27721526 7.57611908 3.17330957 11 7 C6.4923533 6.46968862 3.58045212 4.74778884 0 2 C0 1.34 0 0.68 0 0 Z " fill="#E2E8EB" transform="translate(118,23)"/>
<path d="M0 0 C1.0169313 2.65498232 1.13022151 3.69155375 0.00390625 6.359375 C-0.47175781 7.14828125 -0.94742187 7.9371875 -1.4375 8.75 C-2.14712891 9.94882812 -2.14712891 9.94882812 -2.87109375 11.171875 C-3.24363281 11.77515625 -3.61617187 12.3784375 -4 13 C-5.0169313 10.34501768 -5.13022151 9.30844625 -4.00390625 6.640625 C-3.52824219 5.85171875 -3.05257813 5.0628125 -2.5625 4.25 C-2.08941406 3.45078125 -1.61632812 2.6515625 -1.12890625 1.828125 C-0.75636719 1.22484375 -0.38382813 0.6215625 0 0 Z " fill="#ECF0F2" transform="translate(25,47)"/>
<path d="M0 0 C4.31392226 0.4793247 6.16569547 1.7457985 9 5 C8.67 5.99 8.34 6.98 8 8 C6.66372225 6.85760183 5.33104612 5.71098945 4 4.5625 C3.2575 3.92441406 2.515 3.28632812 1.75 2.62890625 C1.1725 2.09136719 0.595 1.55382812 0 1 C0 0.67 0 0.34 0 0 Z " fill="#CED6DC" transform="translate(127,30)"/>
<path d="M0 0 C4.2742558 1.5830577 6.26531794 4.50568404 9 8 C6 8 6 8 4.39453125 6.7578125 C3.87246094 6.21898438 3.35039063 5.68015625 2.8125 5.125 C2.28269531 4.59132813 1.75289063 4.05765625 1.20703125 3.5078125 C0 2 0 2 0 0 Z " fill="#E9EDEF" transform="translate(108,58)"/>
<path d="M0 0 C0 3 0 3 -1.3125 4.60546875 C-1.869375 5.12753906 -2.42625 5.64960938 -3 6.1875 C-3.556875 6.71730469 -4.11375 7.24710938 -4.6875 7.79296875 C-5.120625 8.19128906 -5.55375 8.58960938 -6 9 C-6.66 8.67 -7.32 8.34 -8 8 C-7.04578192 6.85073734 -6.08647955 5.70569459 -5.125 4.5625 C-4.59132812 3.92441406 -4.05765625 3.28632813 -3.5078125 2.62890625 C-2 1 -2 1 0 0 Z " fill="#E7EBEE" transform="translate(139,134)"/>
<path d="M0 0 C0.66 0.33 1.32 0.66 2 1 C0.625 3.5 0.625 3.5 -1 6 C-1.66 6 -2.32 6 -3 6 C-3 6.66 -3 7.32 -3 8 C-3.66 8 -4.32 8 -5 8 C-4.64950425 4.75791433 -4.43778819 3.38472296 -1.9375 1.1875 C-1.298125 0.795625 -0.65875 0.40375 0 0 Z " fill="#F9FAF5" transform="translate(78,79)"/>
<path d="M0 0 C0.33 0 0.66 0 1 0 C1 3.3 1 6.6 1 10 C2.98 10.495 2.98 10.495 5 11 C4.67 11.99 4.34 12.98 4 14 C2.015625 12.85546875 2.015625 12.85546875 0 11 C-0.390625 8.30078125 -0.390625 8.30078125 -0.25 5.3125 C-0.21390625 4.31863281 -0.1778125 3.32476562 -0.140625 2.30078125 C-0.09421875 1.54152344 -0.0478125 0.78226563 0 0 Z " fill="#F0F3F4" transform="translate(45,136)"/>
<path d="M0 0 C0.33 0 0.66 0 1 0 C1.36923077 7.50769231 1.36923077 7.50769231 -0.5 10 C-0.995 10.33 -1.49 10.66 -2 11 C-3 9 -3 9 -2.44140625 6.8359375 C-2.15136719 6.02382812 -1.86132812 5.21171875 -1.5625 4.375 C-1.27503906 3.55773437 -0.98757812 2.74046875 -0.69140625 1.8984375 C-0.46324219 1.27195312 -0.23507813 0.64546875 0 0 Z " fill="#BDC9D1" transform="translate(154,102)"/>
<path d="M0 0 C-1 3 -1 3 -2.8125 4.25 C-5.33943414 5.11637742 -6.52221994 4.88492145 -9 4 C-2.25 0 -2.25 0 0 0 Z " fill="#DAE0E4" transform="translate(104,118)"/>
<path d="M0 0 C3 1 3 1 4.75 3.4375 C5.36875 4.7059375 5.36875 4.7059375 6 6 C5.67 6.66 5.34 7.32 5 8 C2.5 5.6875 2.5 5.6875 0 3 C0 2.01 0 1.02 0 0 Z " fill="#DAE1E5" transform="translate(21,118)"/>
<path d="M0 0 C0.99 0.33 1.98 0.66 3 1 C1.35 2.98 -0.3 4.96 -2 7 C-2.6875 5.1875 -2.6875 5.1875 -3 3 C-1.5625 1.25 -1.5625 1.25 0 0 Z " fill="#D9E0E4" transform="translate(116,76)"/>
<path d="M0 0 C1 3 1 3 -0.25 5.625 C-2 8 -2 8 -5 9 C-3.7508258 5.54074837 -2.32472205 2.85306797 0 0 Z " fill="#C9D3DA" transform="translate(51,59)"/>
</svg>
